<svg xmlns="http://www.w3.org/2000/svg" baseProfile="tiny" version="1.2" viewBox="0 0 290.73 50"><path fill="#EFF9FE" d="M74.93 24.38l11-12.2h7l-10.4 11.6 11.2 16.4h-7l-8.2-12-3.6 4v8h-6v-28h6v12.2zm39.8-3.8v19.6h-5.4v-11l-8.52 11h-4.68v-19.6h5.4v11l8.48-11h4.72zm10.6 19.59h-5.4v-19.6h5.4v7.4h7.6v-7.4h5.4v19.6h-5.4v-7.4h-7.6v7.4zm27.4.4c-5.6 0-10.4-4.8-10.4-10.2s4.8-10.2 10.4-10.2c5.6 0 10.4 4.8 10.4 10.2 0 5.41-4.8 10.2-10.4 10.2zm0-5c2.6 0 4.8-2.2 4.8-5.2s-2.2-5.2-4.8-5.2-4.8 2.2-4.8 5.2c0 3.01 2.2 5.2 4.8 5.2zm25.2 2.6s-2 2.4-5.4 2.4c-4 0-6.6-2.6-6.6-5.6 0-3.2 2.2-5.44 5.8-6.08l6.2-1.12c0-1.6-1.2-2.8-3.4-2.8-3 0-4.4 2-4.4 2l-3-3s2.6-3.8 7.8-3.8c5 0 8.4 3.4 8.4 7.8v12.2h-5.4v-2zm0-6.39v-.6l-4.4.8c-1.4.24-2.2 1-2.2 2.2s.8 2 2.6 2c2.4 0 4-1.6 4-4.4zm25.8 16.79h-5.4v-7.8c-6.4-.2-11-4.8-11-10.2s4.6-10 11-10.2v-8.2h5.4v8.2c6.4.2 11 4.8 11 10.2s-4.6 10-11 10.2v7.8zm-5.4-23.39c-3.6.2-5.6 2.2-5.6 5.4s2 5.2 5.6 5.4v-10.8zm5.4 10.8c3.6-.2 5.6-2.2 5.6-5.4s-2-5.2-5.6-5.4v10.8zm33.6-15.4v19.6h-5.4v-11l-8.52 11h-4.68v-19.6h5.4v11l8.48-11h4.72zm5.2 0h5.4v14.8h5.4v-14.8h5.4v14.8h5.4v-14.8h5.4v19.6h-27v-19.6zm42.8 17.59s-2 2.4-5.4 2.4c-4 0-6.6-2.6-6.6-5.6 0-3.2 2.2-5.44 5.8-6.08l6.2-1.12c0-1.6-1.2-2.8-3.4-2.8-3 0-4.4 2-4.4 2l-3-3s2.6-3.8 7.8-3.8c5 0 8.4 3.4 8.4 7.8v12.2h-5.4v-2zm0-6.39v-.6l-4.4.8c-1.4.24-2.2 1-2.2 2.2s.8 2 2.6 2c2.4 0 4-1.6 4-4.4z"/><path fill="#EFF8FD" d="M25 0C11.19 0 0 11.19 0 25s11.19 25 25 25 25-11.19 25-25C50.02 11.21 38.85.02 25.07 0H25zm0 43.78C14.63 43.78 6.22 35.37 6.22 25S14.63 6.22 25 6.22 43.78 14.63 43.78 25C43.77 35.37 35.37 43.77 25 43.78z"/><path fill="#EFF8FD" d="M36.595 23.371l-17.12-10.01c-.9-.53-2.06-.22-2.58.68-.17.29-.26.61-.26.95v20.03c0 1.04.84 1.88 1.87 1.89.34 0 .68-.09.97-.26l17.18-10.01c.89-.54 1.17-1.69.64-2.57-.17-.3-.41-.54-.7-.7z"/></svg>