<svg xmlns="http://www.w3.org/2000/svg" viewBox="0 0 24 20"><defs><style>.a{fill:#bfd1e2}.b{fill:#7c95a5}.c{fill:#eff7fc}</style></defs><path d="M9.027 18.789c-.715 0-.594-.268-.84-.945l-2.103-6.875 16.185-9.54" class="a"/><path d="M9.027 18.791a1.417 1.417 0 0 0 1.1-.548L13.07 15.4l-3.671-2.2" class="b"/><path d="M9.402 13.199l8.894 6.529c1.015.556 1.747.268 2-.936l3.62-16.951C24.287.364 23.35-.305 22.379.133L1.12 8.277C-.331 8.855-.323 9.66.855 10.018l5.456 1.692 12.63-7.917c.6-.359 1.143-.166.694.23" class="c"/></svg>